# xmcd CD database file
#
# Track frame offsets:
#	150
#	27277
#	43967
#	62129
#	98025
#	129020
#	164129
#	191657
#	223054
#	239079
#	258115
#	279809
#
# Disc length: 4017 seconds
#
# Revision: 0
# Processed by: cddbd v1.5.2PL0 Copyright (c) Steve Scherf et al.
# Submitted via: CDex 1.70beta2
#
DISCID=ae0faf0c
DTITLE=Steely Dan - Art Crimes [CD1]
DYEAR=1996
DGENRE=Jazz
TTITLE0=Do It Again
TTITLE1=Bad Sneakers
TTITLE2=Everyone's Gone to the Movies
TTITLE3=Josie
TTITLE4=Jack of Speed
TTITLE5=Band Intros - FM vamp
TTITLE6=Hey, Nineteen
TTITLE7=Green Earrings
TTITLE8=Any Major Dude Will Tell You
TTITLE9=Green Flower Street
TTITLE10=Rikki, Don't Lose that Number
TTITLE11=Peg
EXTD=YEAR: 1996
EXTT0=
EXTT1=
EXTT2=
EXTT3=
EXTT4=
EXTT5=
EXTT6=
EXTT7=
EXTT8=
EXTT9=
EXTT10=
EXTT11=
PLAYORDER=
